<svg xmlns="http://www.w3.org/2000/svg" xmlns:xlink="http://www.w3.org/1999/xlink" viewBox="0 0 666.63 666.63">
    <defs>
        <linearGradient id="a" y1="333.32" x2="666.63" y2="333.32" gradientUnits="userSpaceOnUse">
            <stop offset="0" stop-color="#09ffff" />
            <stop offset="1" stop-color="#0073ff" />
        </linearGradient>
        <clipPath id="b">
            <path d="M199,329.45a452.91,452.91,0,0,0,4.93,82A453.37,453.37,0,0,0,274.22,454C329,480.82,384.41,495,432,496.75c20.59-43,33.84-98.55,35.59-159.57a453,453,0,0,0-4.93-82,453.37,453.37,0,0,0-70.27-42.53c-54.82-26.85-110.19-41-157.8-42.78-20.59,43-33.83,98.55-35.59,159.57" fill="none" />
        </clipPath>
    </defs>
    <path d="M666.63,333.32c0,184.08-149.23,333.31-333.31,333.31S0,517.4,0,333.32,149.23,0,333.32,0,666.63,149.23,666.63,333.32" fill="#fff" />
    <path d="M199,329.45C203,190.72,266.38,80,340.55,82.12S471.61,198.45,467.61,337.18,400.25,586.64,326.08,584.51,195,468.18,199,329.45Z" fill="none" stroke="#000" stroke-miterlimit="10" stroke-width="9" />
    <path d="M392.41,212.66c-124.64-61-252.14-56.52-284.78,10.12s42,170.15,166.59,231.19S526.36,510.49,559,443.85,517.05,273.7,392.41,212.66Z" fill="none" stroke="#000" stroke-miterlimit="10" stroke-width="9" />
    <ellipse cx="333.32" cy="333.32" rx="251.3" ry="134.35" transform="translate(-112.64 180.59) rotate(-26.09)" fill="none" stroke="#000" stroke-miterlimit="10" stroke-width="9" />
    <g clip-path="url(#b)">
        <path d="M378.39,278.15c3-1.1,5.78-1.94,8.42-3.17,4.19-2,7.54-4.69,8.1-9.84.31-2.77-.72-3.79-3.33-3.75-3.45.05-6.91,0-10.37.09-2.54.08-3.73-.91-3.76-3.57,0-3.53-.35-7.05-.6-11.47l-12.65,4.61c-.8-6.79-.81-7-7.93-6.67q-11.88.5-23.73,1.63c-6.23.6-13.1.26-18.45,2.88-9.67,4.73-18.76,10.89-27.47,17.32-9.65,7.12-14.49,18.4-21.77,27.6-5.77,7.29-9.53,15-8.79,24.54.26,3.41-.36,6.89-.61,10.34-.48,6.85-1,13.69-1.48,20.6-12.65-.71-24.78-1.42-36.91-2.08-26.21-1.42-52.42-2.75-78.62-4.26a17.3,17.3,0,0,0-12.81,4c-4.8,4-9.75,7.9-14.49,12a11.28,11.28,0,0,1-9.92,2.62c-11.11-1.79-22.28-3.24-33.39-5-3.56-.56-6.56-.07-9.12,2.58-6.5,6.71-13.11,13.33-19.49,20.15a8.91,8.91,0,0,0-1.91,4.85q-2,17.55-3.64,35.13c-.47,5.05-.58,10.13-.87,15.6l19.69,1.65c3-5,5.09-9.33,8-13.08,3.5-4.56,7.67-8.58,11.51-12.87,5.15-5.76,9.93-11.54,10.41-19.94a8.53,8.53,0,0,1,9-8.17c1,.06,2.5.7,2.71,1.4.89,2.9,1.35,5.65-.64,8.73-1.6,2.46-2.88,6.07-2.35,8.8a113.54,113.54,0,0,0,5.68,19.41c2.89,7.5,7,14.55,9.7,22.09,3.52,9.63,3.66,19-4.55,27-2.65,2.57-4.53,5.92-7.13,8.54a12.32,12.32,0,0,0-3.68,11.15,31.44,31.44,0,0,0,1.94,7.36c3.15,7.41,6.61,14.69,9.79,22.08,2.15,5,4,10.13,6.18,15.56l-2.78.13a31.06,31.06,0,1,0,11.48,31.77H293.48a31.13,31.13,0,1,0,11-31.44,4,4,0,0,0-1.11-.18A134,134,0,0,0,284.31,536c-8.19,1.26-15.7-5.6-14.6-14a85.8,85.8,0,0,0,1.06-10.69c.06-16.1,5.43-30.54,14.73-43.25,6.23-8.51,13.92-16,21.18-23.71A38.59,38.59,0,0,0,317,424.22c3.19-17.61,6.49-35.19,10.13-52.71,1.85-8.94,4.54-17.71,6.82-26.45a9.38,9.38,0,0,1,1.42.13c8.87,3.21,17.53,7.26,27.36,6.67a5.89,5.89,0,0,1,3.1,1.31c10.93,7.31,21.88,14.61,32.72,22.07,2,1.38,3.31,1.19,5-.27,5.76-4.88,11.67-9.6,17.39-14.52a64.91,64.91,0,0,0,5.17-5.56v-3.08l-47.74-73.66M139.67,484.94c6-4.15,11.85-8.54,18.08-12.3,6.48-3.92,12.09-8.59,16-15.1,2-3.4,4.59-4.16,8.39-3.14,14.93,4,29.82,8.22,45.38,9.29,5.17.36,6.34,2.18,7.32,7.21,4.54,23.48,3.83,47.1,2.32,70.77-.2,3.21-1.83,3.72-4.5,3.71-11.65-.07-23.3,0-35,0v0c-11.39,0-22.79.14-34.17-.12a11.57,11.57,0,0,1-6.41-2.61c-4.39-3.5-8.85-7.08-12.48-11.32a22.48,22.48,0,0,1-5-10.4c-1.6-9.84-2.3-19.82-3.48-29.72-.37-3.08,1.31-4.79,3.49-6.29M87.49,569.75a10.37,10.37,0,1,1,10.36-10.36,10.38,10.38,0,0,1-10.36,10.36m236.26,0a10.37,10.37,0,1,1,10.36-10.36,10.37,10.37,0,0,1-10.36,10.36" fill="#000" />
    </g>
</svg>
