<svg xmlns="http://www.w3.org/2000/svg" xmlns:xlink="http://www.w3.org/1999/xlink" viewBox="0 0 16 16">
  <defs>
    <path id="delet-a" d="M2.5,2.98659218 L4.296875,2.98659218 L5.625,1.54748603 C5.93850537,1.19570031 6.40497014,1 6.890625,1 L9.234375,1 C9.7230347,1 10.1939132,1.1998148 10.515625,1.54748603 L11.796875,2.98659218 L13.5,2.98659218 L15,2.98659218 C15,3.53949437 14.5523573,3.98770831 14,3.9877095 L13.5,3.9877095 L13.5,13.498324 C13.5002379,14.3276768 12.8287716,15 12,15 L4,15 C3.17344925,15 2.50198291,14.3276768 2.5,13.498324 L2.5,3.9877095 L2,3.9877095 C1.44764269,3.98770831 1,3.53949437 1,2.98659218 L2.5,2.98659218 L2.5,2.98659218 Z M10.453125,2.98659218 L9.765625,2.22011173 C9.64424291,2.08547818 9.44543873,2.00111732 9.234375,2.00111732 L6.890625,2.00111732 C6.67885511,2.00111732 6.48164067,2.08385591 6.359375,2.22011173 L5.65625,2.98659218 L10.453125,2.98659218 L10.453125,2.98659218 Z M5.5,5.48938547 C5.77614237,5.48938547 6,5.71349322 6,5.98994413 L6,11.996648 C6,12.273099 5.77614237,12.4972067 5.5,12.4972067 C5.22385763,12.4972067 5,12.273099 5,11.996648 L5,5.98994413 C5,5.71349322 5.22385763,5.48938547 5.5,5.48938547 Z M8,5.48938547 C8.27614237,5.48938547 8.5,5.71349322 8.5,5.98994413 L8.5,11.996648 C8.5,12.273099 8.27614237,12.4972067 8,12.4972067 C7.72385763,12.4972067 7.5,12.273099 7.5,11.996648 L7.5,5.98994413 C7.5,5.71349322 7.72385763,5.48938547 8,5.48938547 Z M10.5,5.48938547 C10.7761424,5.48938547 11,5.71349322 11,5.98994413 L11,11.996648 C11,12.273099 10.7761424,12.4972067 10.5,12.4972067 C10.2238576,12.4972067 10,12.273099 10,11.996648 L10,5.98994413 C10,5.71349322 10.2238576,5.48938547 10.5,5.48938547 Z M3.5,3.9877095 L3.5,13.498324 C3.5,13.7747749 3.72385763,13.9988827 4,13.9988827 L12,13.9988827 C12.2761424,13.9988827 12.5,13.7747749 12.5,13.498324 L12.5,3.9877095 L3.5,3.9877095 Z"/>
  </defs>
  <g fill="none" fill-rule="evenodd">
    <mask id="delet-b" fill="#fff">
      <use xlink:href="#delet-a"/>
    </mask>
    <use fill="currentColor" fill-rule="nonzero" xlink:href="#delet-a"/>
    <g fill="currentColor" mask="url(#delet-b)">
      <rect width="16" height="16"/>
    </g>
  </g>
</svg>
