<?xml version="1.0" encoding="UTF-8"?>
<svg viewBox="0 0 16 16" version="1.1" xmlns="http://www.w3.org/2000/svg" xmlns:xlink="http://www.w3.org/1999/xlink">
    <g stroke="none" stroke-width="1">
        <path d="M8,1 C11.8659932,1 15,4.13400675 15,8 C15,11.8659932 11.8659932,15 8,15 C4.13400675,15 1,11.8659932 1,8 C1,4.13400675 4.13400675,1 8,1 Z M8,2 C4.6862915,2 2,4.6862915 2,8 C2,11.3137085 4.6862915,14 8,14 C11.3137085,14 14,11.3137085 14,8 C14,4.6862915 11.3137085,2 8,2 Z M7,7 L8.25,7 C8.5209182,7 8.74151123,7.21546769 8.7497608,7.48438478 L8.75,7.484375 L8.75,11 L9,11 C9.27338095,11 9.49551762,11.2194029 9.49993301,11.4917316 L9.5,11.5 C9.5,11.773381 9.28059714,11.9955176 9.00826841,11.999933 L9,12 L7,12 C6.72385763,12 6.5,11.7761424 6.5,11.5 C6.5,11.226619 6.71940286,11.0044824 6.99173159,11.000067 L7,11 L7.25,11 L7.25,8 L7,8 C6.72661905,8 6.50448238,7.78059714 6.50006699,7.50826841 L6.5,7.5 C6.5,7.22661905 6.71940286,7.00448238 6.99173159,7.00006699 L7,7 L8.25,7 L7,7 Z M8,4 C8.55228475,4 9,4.44771525 9,5 C9,5.55228475 8.55228475,6 8,6 C7.44771525,6 7,5.55228475 7,5 C7,4.44771525 7.44771525,4 8,4 Z" fill="currentColor"></path>
    </g>
</svg>
