<svg xmlns="http://www.w3.org/2000/svg" xmlns:xlink="http://www.w3.org/1999/xlink" viewBox="0 0 16 16">
  <defs>
    <path id="edit-a" d="M9.35636364,5 L3.48,10.8618182 L3,13 L5.12363636,12.5054545 L11,6.64363636 L9.35636364,5 Z M10,4.43055556 L11.5694444,6 L12.875,4.70833333 C13.0434568,4.53025268 13.0434568,4.24842319 12.875,4.06944444 L11.9305556,3.125 C11.7515768,2.95654321 11.4697473,2.95654321 11.2916667,3.125 L10,4.43055556 L10,4.43055556 Z M13.5956679,3.38461538 C14.1353519,3.92618882 14.1353519,4.80326469 13.5956679,5.34615385 L5.6967509,13.2355769 C5.62227783,13.3093619 5.52563328,13.3628472 5.42238267,13.3942308 L2.83754513,13.9855769 C2.46567907,14.0665829 2.10137789,13.8387937 2.01444043,13.4807692 C1.99445634,13.3746437 1.99423432,13.2716359 2.01444043,13.1778846 L2.60649819,10.5817308 C2.62720154,10.468727 2.68095434,10.3712635 2.76534296,10.2932692 L10.6498195,2.40384615 C11.194436,1.86475901 12.0722313,1.86475901 12.6137184,2.40384615 L13.5956679,3.38461538 Z"/>
  </defs>
  <g fill="none" fill-rule="evenodd">
    <mask id="edit-b" fill="#fff">
      <use xlink:href="#edit-a"/>
    </mask>
    <g fill="currentColor" mask="url(#edit-b)">
      <rect width="12" height="12" transform="translate(2 2)"/>
    </g>
  </g>
</svg>
