<svg xmlns="http://www.w3.org/2000/svg" xmlns:xlink="http://www.w3.org/1999/xlink" viewBox="0 0 24 24">
  <defs>
    <path id="error-a" d="M13.1049107,12 L15.3392857,14.2098214 C15.6369055,14.5267873 15.6369055,15.0238041 15.3392857,15.3392857 C15.0238041,15.6369055 14.5267873,15.6369055 14.2098214,15.3392857 L12,13.1049107 L9.79017857,15.3392857 C9.47321275,15.6369055 8.97619586,15.6369055 8.66071429,15.3392857 C8.36309447,15.0238041 8.36309447,14.5267873 8.66071429,14.2098214 L10.8950893,12 L8.66071429,9.79017857 C8.36309447,9.47321275 8.36309447,8.97619586 8.66071429,8.66071429 C8.97619586,8.36309447 9.47321275,8.36309447 9.79017857,8.66071429 L12,10.8950893 L14.2098214,8.66071429 C14.5267873,8.36309447 15.0238041,8.36309447 15.3392857,8.66071429 C15.6369055,8.97619586 15.6369055,9.47321275 15.3392857,9.79017857 L13.1049107,12 L13.1049107,12 Z M12,23 C5.92486775,23 1,18.0751322 1,12 C1,5.92486775 5.92486775,1 12,1 C18.0751322,1 23,5.92486775 23,12 C23,18.0751322 18.0751322,23 12,23 Z M12,21.4285714 C17.2072562,21.4285714 21.4285714,17.2072562 21.4285714,12 C21.4285714,6.79274379 17.2072562,2.57142857 12,2.57142857 C6.79274379,2.57142857 2.57142857,6.79274379 2.57142857,12 C2.57142857,17.2072562 6.79274379,21.4285714 12,21.4285714 Z"/>
  </defs>
  <g fill="none" fill-rule="evenodd">
    <mask id="error-b" fill="#fff">
      <use xlink:href="#error-a"/>
    </mask>
    <g fill="#E70102" mask="url(#error-b)">
      <rect width="24" height="24" transform="matrix(1 0 0 -1 0 24)"/>
    </g>
  </g>
</svg>
