<svg viewBox="0 0 16 16" version="1.1" xmlns="http://www.w3.org/2000/svg" xmlns:xlink="http://www.w3.org/1999/xlink">
    <defs>
        <path d="M9,2 L3.5,2 C3.22385763,2 3,2.22385763 3,2.5 L3,13.5 C3,13.7761424 3.22385763,14 3.5,14 L12.5,14 C12.7761424,14 13,13.7761424 13,13.5 L13,6 L10,6 C9.44771525,6 9,5.55228475 9,5 L9,2 L9,2 Z M10,2 L10,5 L13,5 L13,4.921875 C13,4.78160532 12.9473216,4.65442836 12.859375,4.5625 L10.4375,2.140625 C10.3455716,2.05267842 10.2183947,2 10.078125,2 L10,2 Z M3.5,1 L10.078125,1 C10.4836112,1 10.865142,1.15803526 11.140625,1.4375 L13.5625,3.859375 C13.8419647,4.13485796 14,4.51638883 14,4.921875 L14,13.5 C14,14.3284271 13.3284271,15 12.5,15 L3.5,15 C2.67157288,15 2,14.3284271 2,13.5 L2,2.5 C2,1.67157288 2.67157288,1 3.5,1 Z M5.5,7 L10.5,7 C10.7761424,7 11,7.22385763 11,7.5 C11,7.77614237 10.7761424,8 10.5,8 L5.5,8 C5.22385763,8 5,7.77614237 5,7.5 C5,7.22385763 5.22385763,7 5.5,7 Z M5.5,9 L10.5,9 C10.7761424,9 11,9.22385763 11,9.5 C11,9.77614237 10.7761424,10 10.5,10 L5.5,10 C5.22385763,10 5,9.77614237 5,9.5 C5,9.22385763 5.22385763,9 5.5,9 Z M5.5,11 L10.5,11 C10.7761424,11 11,11.2238576 11,11.5 C11,11.7761424 10.7761424,12 10.5,12 L5.5,12 C5.22385763,12 5,11.7761424 5,11.5 C5,11.2238576 5.22385763,11 5.5,11 Z" id="path-1"></path>
    </defs>
    <g stroke="none" stroke-width="1" fill="none" fill-rule="evenodd">
        <mask fill="white">
            <use xlink:href="#path-1"></use>
        </mask>
        <use fill="currentColor" xlink:href="#path-1"></use>
    </g>
</svg>
