<svg xmlns="http://www.w3.org/2000/svg" xmlns:xlink="http://www.w3.org/1999/xlink" viewBox="0 0 24 24">
  <g fill="none" fill-rule="evenodd">
    <path fill="#D9D9D9" fill-rule="nonzero" d="M12,1 C18.0751322,1 23,5.92486775 23,12 C23,18.0751322 18.0751322,23 12,23 C5.92486775,23 1,18.0751322 1,12 C1,5.92486775 5.92486775,1 12,1 Z M12,2.57142857 C6.79274379,2.57142857 2.57142857,6.79274379 2.57142857,12 C2.57142857,17.2072562 6.79274379,21.4285714 12,21.4285714 C17.2072562,21.4285714 21.4285714,17.2072562 21.4285714,12 C21.4285714,6.79274379 17.2072562,2.57142857 12,2.57142857 Z"/>
    <g transform="rotate(90 11 12)">
      <mask id="loading-b" fill="#fff">
        <path d="M1.57142857,11 L1.57142857,11.1294218 C1.57142857,11.9258201 0.92582015,12.5714286 0.129421802,12.5714286 C0.129421802,12.5714286 0.129421802,12.5714286 0.129421802,12.5714286 C0.0608199601,12.350713 0.0176793596,11.8269035 0,11 C0,4.92486775 4.92486775,0 11,0 C17.0751322,0 22,4.92486775 22,11 C22,17.0751322 17.0751322,22 11,22 C10.3083042,22 9.78449466,21.958653 9.42857143,21.8759589 C9.42857143,21.8759589 9.42857143,21.8759589 9.42857143,21.8759589 C9.42857143,21.0765889 10.0765889,20.4285714 10.8759589,20.4285714 L11,20.4285714 L11,20.4285714 C16.2072562,20.4285714 20.4285714,16.2072562 20.4285714,11 C20.4285714,5.79274379 16.2072562,1.57142857 11,1.57142857 C5.79274379,1.57142857 1.57142857,5.79274379 1.57142857,11 Z"/>
      </mask>
      <g fill="#1890FF" mask="url(#loading-b)">
        <rect width="24" height="24" transform="matrix(1 0 0 -1 -1 23)"/>
      </g>
    </g>
    <animateTransform attributeName="transform" attributeType="XML" type="rotate" dur="1s" from="0 12 12" to="360 12 12" repeatCount="indefinite"></animateTransform>
  </g>
</svg>
