<svg viewBox="0 0 16 16" version="1.1" xmlns="http://www.w3.org/2000/svg" xmlns:xlink="http://www.w3.org/1999/xlink">
    <defs>
        <path d="M3,2.5 C2.72385763,2.5 2.5,2.72385763 2.5,3 L2.5,6 C2.5,6.27614237 2.72385763,6.5 3,6.5 L6,6.5 C6.27614237,6.5 6.5,6.27614237 6.5,6 L6.5,3 C6.5,2.72385763 6.27614237,2.5 6,2.5 L3,2.5 Z M3,1.5 L6,1.5 C6.82842712,1.5 7.5,2.17157288 7.5,3 L7.5,6 C7.5,6.82842712 6.82842712,7.5 6,7.5 L3,7.5 C2.17157288,7.5 1.5,6.82842712 1.5,6 L1.5,3 C1.5,2.17157288 2.17157288,1.5 3,1.5 Z M4.5,3.5 C5.05228475,3.5 5.5,3.94771525 5.5,4.5 C5.5,5.05228475 5.05228475,5.5 4.5,5.5 C3.94771525,5.5 3.5,5.05228475 3.5,4.5 C3.5,3.94771525 3.94771525,3.5 4.5,3.5 Z M4.5,10.5 C5.05228475,10.5 5.5,10.9477153 5.5,11.5 C5.5,12.0522847 5.05228475,12.5 4.5,12.5 C3.94771525,12.5 3.5,12.0522847 3.5,11.5 C3.5,10.9477153 3.94771525,10.5 4.5,10.5 Z M11.5,3.5 C12.0522847,3.5 12.5,3.94771525 12.5,4.5 C12.5,5.05228475 12.0522847,5.5 11.5,5.5 C10.9477153,5.5 10.5,5.05228475 10.5,4.5 C10.5,3.94771525 10.9477153,3.5 11.5,3.5 Z M3,9.5 C2.72385763,9.5 2.5,9.72385763 2.5,10 L2.5,13 C2.5,13.2761424 2.72385763,13.5 3,13.5 L6,13.5 C6.27614237,13.5 6.5,13.2761424 6.5,13 L6.5,10 C6.5,9.72385763 6.27614237,9.5 6,9.5 L3,9.5 Z M3,8.5 L6,8.5 C6.82842712,8.5 7.5,9.17157288 7.5,10 L7.5,13 C7.5,13.8284271 6.82842712,14.5 6,14.5 L3,14.5 C2.17157288,14.5 1.5,13.8284271 1.5,13 L1.5,10 C1.5,9.17157288 2.17157288,8.5 3,8.5 Z M10,2.5 C9.72385763,2.5 9.5,2.72385763 9.5,3 L9.5,6 C9.5,6.27614237 9.72385763,6.5 10,6.5 L13,6.5 C13.2761424,6.5 13.5,6.27614237 13.5,6 L13.5,3 C13.5,2.72385763 13.2761424,2.5 13,2.5 L10,2.5 Z M10,1.5 L13,1.5 C13.8284271,1.5 14.5,2.17157288 14.5,3 L14.5,6 C14.5,6.82842712 13.8284271,7.5 13,7.5 L10,7.5 C9.17157288,7.5 8.5,6.82842712 8.5,6 L8.5,3 C8.5,2.17157288 9.17157288,1.5 10,1.5 Z M10,8.515625 L10,13.5 C10,14.0522847 9.55228475,14.5 9,14.5 L9,9.515625 C9,8.96334025 9.44771525,8.515625 10,8.515625 Z M14,8.515625 L14,13.5 C14,14.0522847 13.5522847,14.5 13,14.5 L13,9.515625 C13,8.96334025 13.4477153,8.515625 14,8.515625 Z M12,9.5 L12,13.5 C12,14.0522847 11.5522847,14.5 11,14.5 L11,10.5 C11,9.94771525 11.4477153,9.5 12,9.5 Z" id="path-1"></path>
    </defs>
    <g stroke="none" stroke-width="1" fill="none" fill-rule="evenodd">
        <mask fill="white">
            <use xlink:href="#path-1"></use>
        </mask>
        <use fill="currentColor" xlink:href="#path-1"></use>
    </g>
</svg>
