<svg viewBox="0 0 16 16" version="1.1" xmlns="http://www.w3.org/2000/svg" xmlns:xlink="http://www.w3.org/1999/xlink">
    <defs>
        <path d="M3.390625,9.75 C4.12572251,11.6723941 5.98605293,12.9993423 8.109375,13 C10.4312598,12.9993423 12.4346468,11.433441 13.015625,9.234375 C13.0867832,8.95956215 13.3603482,8.80009604 13.625,8.875 C13.8944023,8.94104497 14.0537735,9.21477278 13.984375,9.484375 C13.2865204,12.1253471 10.8881218,14 8.109375,14 C5.55879725,14 3.32679229,12.4033724 2.453125,10.09375 L2.1875,10.609375 C1.96093435,11.0471551 1.43214127,11.2185243 1,11 L2.390625,8.265625 L5.140625,9.65625 C4.91442091,10.0887664 4.38562783,10.2601356 3.953125,10.046875 L3.390625,9.75 L3.390625,9.75 Z M12.609375,6.25 C11.8742775,4.32760589 10.0139471,3.00065771 7.890625,3 C5.56874021,3.00065771 3.56535315,4.56655899 2.984375,6.765625 C2.91321682,7.04043785 2.63965178,7.19990396 2.375,7.125 C2.10559775,7.05895503 1.94622645,6.78522722 2.015625,6.515625 C2.71347955,3.87465294 5.11187815,2 7.890625,2 C10.4412027,2 12.6732077,3.59662757 13.546875,5.90625 L13.8125,5.390625 C14.0390656,4.95284486 14.5678587,4.78147569 15,5 L13.609375,7.734375 L10.859375,6.34375 C11.0855791,5.91123355 11.6143722,5.73986438 12.046875,5.953125 L12.609375,6.25 L12.609375,6.25 Z" id="path-1"></path>
    </defs>
    <g stroke="none" stroke-width="1" fill="none" fill-rule="evenodd">
        <mask id="mask-2" fill="white">
            <use xlink:href="#path-1"></use>
        </mask>
        <use fill="currentColor" xlink:href="#path-1"></use>
    </g>
</svg>
