<svg xmlns="http://www.w3.org/2000/svg" xmlns:xlink="http://www.w3.org/1999/xlink" viewBox="0 0 24 24">
  <defs>
    <path id="reset-a" d="M12,22 C6.4771525,22 2,17.5228475 2,12 C2,6.4771525 6.4771525,2 12,2 C17.5228475,2 22,6.4771525 22,12 C22,17.5228475 17.5228475,22 12,22 Z M13.0044643,12 L15.0357143,9.99107143 C15.3062778,9.70292068 15.3062778,9.25108715 15.0357143,8.96428571 C14.7489129,8.69372224 14.2970793,8.69372224 14.0089286,8.96428571 L12,10.9955357 L9.99107143,8.96428571 C9.70292068,8.69372224 9.25108715,8.69372224 8.96428571,8.96428571 C8.69372224,9.25108715 8.69372224,9.70292068 8.96428571,9.99107143 L10.9955357,12 L8.96428571,14.0089286 C8.69372224,14.2970793 8.69372224,14.7489129 8.96428571,15.0357143 C9.25108715,15.3062778 9.70292068,15.3062778 9.99107143,15.0357143 L12,13.0044643 L14.0089286,15.0357143 C14.2970793,15.3062778 14.7489129,15.3062778 15.0357143,15.0357143 C15.3062778,14.7489129 15.3062778,14.2970793 15.0357143,14.0089286 L13.0044643,12 L13.0044643,12 Z"/>
  </defs>
  <g fill="none" fill-rule="evenodd">
    <mask id="reset-b" fill="#fff">
      <use xlink:href="#reset-a"/>
    </mask>
    <g fill="#000" fill-opacity=".25" mask="url(#reset-b)">
      <rect width="24" height="24" transform="matrix(1 0 0 -1 0 24)"/>
    </g>
  </g>
</svg>
