<svg xmlns="http://www.w3.org/2000/svg" xmlns:xlink="http://www.w3.org/1999/xlink" viewBox="0 0 24 24">
  <defs>
    <path id="success-a" d="M14.3147321,7.97991071 C14.6319006,7.6822909 15.12882,7.6822909 15.4441964,7.97991071 C15.7418012,8.29539229 15.7418012,8.79240917 15.4441964,9.109375 L9.89508929,14.6584821 C9.73256214,14.8028266 9.53170963,14.8794643 9.33035714,14.8794643 C9.13000461,14.8794643 8.9291521,14.8028266 8.765625,14.6584821 L6.40848214,12.3013393 C6.11087735,11.9839992 6.11087735,11.4869823 6.40848214,11.171875 C6.72385855,10.8738809 7.22077799,10.8738809 7.53794643,11.171875 L9.33035714,12.9888393 L14.3147321,7.97991071 Z M11,22 C4.92486775,22 0,17.0751322 0,11 C0,4.92486775 4.92486775,0 11,0 C17.0751322,0 22,4.92486775 22,11 C22,17.0751322 17.0751322,22 11,22 Z M11,20.4285714 C16.2072562,20.4285714 20.4285714,16.2072562 20.4285714,11 C20.4285714,5.79274379 16.2072562,1.57142857 11,1.57142857 C5.79274379,1.57142857 1.57142857,5.79274379 1.57142857,11 C1.57142857,16.2072562 5.79274379,20.4285714 11,20.4285714 Z"/>
  </defs>
  <g fill="none" fill-rule="evenodd" transform="translate(1 1)">
    <mask id="success-b" fill="#fff">
      <use xlink:href="#success-a"/>
    </mask>
    <g fill="#52C41A" mask="url(#success-b)">
      <rect width="24" height="24" transform="matrix(1 0 0 -1 -1 23)"/>
    </g>
  </g>
</svg>
