<svg xmlns="http://www.w3.org/2000/svg" xmlns:xlink="http://www.w3.org/1999/xlink" viewBox="0 0 93 86">
  <path fill-opacity=".25" fill-rule="evenodd" d="M11.3291016,49.5 L31.8369141,49.5 L32.8623047,50.921875 C36.7358847,56.5803168 41.2305633,59.25 46.5,59.25 C51.8656742,59.25 56.3603529,56.5803168 60.2402344,50.921875 L61.265625,49.5 L82.1835938,49.6015625 L71.109375,36.5 L23.53125,36.5 L11.3291016,49.5 L11.3291016,49.5 Z M7.125,56.1015625 L7.125,75.5 C7.125,77.2946348 8.59406566,78.75 10.40625,78.75 L82.59375,78.75 C84.4059343,78.75 85.875,77.2946348 85.875,75.5 L85.875,56.1015625 L64.546875,56 C59.7089284,62.4118715 53.6208904,65.7474036 46.5,65.75 C39.3791096,65.7474036 33.2910716,62.4118715 28.453125,56 L7.125,56.1015625 L7.125,56.1015625 Z M22.0957031,30 L71.8271484,30 C73.3152745,30 74.6976876,30.6396878 75.6210938,31.7265625 L91.3095703,50.3125 C92.0315059,51.1603635 92.4375,52.2676729 92.4375,53.4609375 L92.4375,75.5 C92.4375,80.8847763 88.030303,85.25 82.59375,85.25 L10.40625,85.25 C4.96969699,85.25 0.5625,80.8847763 0.5625,75.5 L0.5625,53.359375 C0.5625,52.1738074 1.02805304,50.9937874 1.89550781,50.109375 L19.5322266,31.1171875 C20.2144906,30.391275 21.1162994,30 22.0957031,30 Z M46.5,0.75 C48.3121843,0.75 49.78125,2.20507456 49.78125,4 L49.78125,17 C49.78125,18.7949254 48.3121843,20.25 46.5,20.25 C44.6878157,20.25 43.21875,18.7949254 43.21875,17 L43.21875,4 C43.21875,2.20507456 44.6878157,0.75 46.5,0.75 Z M18.7119141,4.40625 C20.2815916,3.53813301 22.2882051,4.07114777 23.2236328,5.625 L29.7861328,16.8984375 C30.6621903,18.4497237 30.1245198,20.4389619 28.5556641,21.3671875 C26.9859865,22.2353045 24.979373,21.7022897 24.0439453,20.1484375 L17.4814453,8.875 C16.6053878,7.3237138 17.1430583,5.33447563 18.7119141,4.40625 Z M74.5957031,4.40625 C76.1645589,5.33447563 76.7022294,7.3237138 75.8261719,8.875 L69.2636719,20.1484375 C68.3282442,21.7022897 66.3216307,22.2353045 64.7519531,21.3671875 C63.1830973,20.4389619 62.6454269,18.4497237 63.5214844,16.8984375 L70.0839844,5.625 C71.0194121,4.07114777 73.0260256,3.53813301 74.5957031,4.40625 Z"/>
</svg>
